<mxfile host="app.diagrams.net" modified="2021-01-21T16:01:25.378Z" agent="5.0 (Macintosh; Intel Mac OS X 10_15_7) AppleWebKit/605.1.15 (KHTML, like Gecko) Version/14.0 Safari/605.1.15" etag="j5qcWyWiO4F9-4neWqdb" version="14.1.8" type="github">
  <diagram name="Page-1" id="e7e014a7-5840-1c2e-5031-d8a46d1fe8dd">
    <mxGraphModel dx="1113" dy="779" grid="1" gridSize="10" guides="1" tooltips="1" connect="1" arrows="1" fold="1" page="1" pageScale="1" pageWidth="1169" pageHeight="826" background="#ffffff" math="0" shadow="0">
      <root>
        <mxCell id="0" />
        <mxCell id="1" parent="0" />
        <mxCell id="2" value="用户" style="swimlane;whiteSpace=wrap" parent="1" vertex="1">
          <mxGeometry x="170" y="128" width="270" height="1192" as="geometry" />
        </mxCell>
        <mxCell id="5" value="" style="ellipse;shape=startState;fillColor=#000000;" parent="2" vertex="1">
          <mxGeometry x="120" y="32" width="30" height="30" as="geometry" />
        </mxCell>
        <mxCell id="6" value="" style="edgeStyle=elbowEdgeStyle;elbow=horizontal;verticalAlign=bottom;endArrow=open;endSize=8;endFill=1;rounded=0" parent="2" source="5" target="7" edge="1">
          <mxGeometry x="100" y="40" as="geometry">
            <mxPoint x="115" y="110" as="targetPoint" />
          </mxGeometry>
        </mxCell>
        <mxCell id="7" value="填写用户注册信息表" style="shadow=1;" parent="2" vertex="1">
          <mxGeometry x="73.63000000000001" y="92" width="122.75" height="50" as="geometry" />
        </mxCell>
        <mxCell id="Vffi9rLx0xFltfY1xyWI-78" value="[填写短信]" style="text;html=1;align=center;verticalAlign=middle;resizable=0;points=[];autosize=1;" vertex="1" parent="2">
          <mxGeometry x="130" y="292" width="70" height="20" as="geometry" />
        </mxCell>
        <mxCell id="Vffi9rLx0xFltfY1xyWI-103" value="[发现问题]" style="text;html=1;align=center;verticalAlign=middle;resizable=0;points=[];autosize=1;" vertex="1" parent="2">
          <mxGeometry x="130" y="792" width="70" height="20" as="geometry" />
        </mxCell>
        <mxCell id="Vffi9rLx0xFltfY1xyWI-70" value="浏览内容" style="shadow=1;" vertex="1" parent="2">
          <mxGeometry x="73.63" y="732" width="122.75" height="50" as="geometry" />
        </mxCell>
        <mxCell id="Vffi9rLx0xFltfY1xyWI-119" style="edgeStyle=orthogonalEdgeStyle;rounded=0;orthogonalLoop=1;jettySize=auto;html=1;entryX=0.5;entryY=0;entryDx=0;entryDy=0;strokeColor=#000000;" edge="1" parent="2" source="Vffi9rLx0xFltfY1xyWI-108" target="Vffi9rLx0xFltfY1xyWI-70">
          <mxGeometry relative="1" as="geometry" />
        </mxCell>
        <mxCell id="Vffi9rLx0xFltfY1xyWI-108" value="" style="html=1;whiteSpace=wrap;aspect=fixed;shape=isoRectangle;shadow=1;strokeColor=#000000;" vertex="1" parent="2">
          <mxGeometry x="100.01" y="651" width="70" height="42" as="geometry" />
        </mxCell>
        <mxCell id="Vffi9rLx0xFltfY1xyWI-95" value="[允许登录]" style="text;html=1;align=center;verticalAlign=middle;resizable=0;points=[];autosize=1;" vertex="1" parent="2">
          <mxGeometry x="240" y="561" width="70" height="20" as="geometry" />
        </mxCell>
        <mxCell id="Vffi9rLx0xFltfY1xyWI-117" style="edgeStyle=orthogonalEdgeStyle;rounded=0;orthogonalLoop=1;jettySize=auto;html=1;strokeColor=#000000;exitX=1.016;exitY=0.496;exitDx=0;exitDy=0;exitPerimeter=0;" edge="1" parent="2" source="Vffi9rLx0xFltfY1xyWI-108">
          <mxGeometry relative="1" as="geometry">
            <mxPoint x="247.49999999999997" y="713" as="targetPoint" />
            <mxPoint x="302.49" y="672" as="sourcePoint" />
            <Array as="points">
              <mxPoint x="247" y="672" />
            </Array>
          </mxGeometry>
        </mxCell>
        <mxCell id="3" value="系统" style="swimlane;whiteSpace=wrap;shadow=1;" parent="1" vertex="1">
          <mxGeometry x="440" y="128" width="300" height="1192" as="geometry" />
        </mxCell>
        <mxCell id="Vffi9rLx0xFltfY1xyWI-86" style="edgeStyle=none;rounded=0;orthogonalLoop=1;jettySize=auto;html=1;entryX=0.526;entryY=0.573;entryDx=0;entryDy=0;entryPerimeter=0;strokeColor=#000000;" edge="1" parent="3" source="15" target="Vffi9rLx0xFltfY1xyWI-43">
          <mxGeometry relative="1" as="geometry" />
        </mxCell>
        <mxCell id="15" value="进行短信验证" style="" parent="3" vertex="1">
          <mxGeometry x="90" y="92" width="110" height="50" as="geometry" />
        </mxCell>
        <mxCell id="Vffi9rLx0xFltfY1xyWI-43" value="" style="shape=line;html=1;strokeWidth=6;" vertex="1" parent="3">
          <mxGeometry x="70" y="195" width="140" height="15" as="geometry" />
        </mxCell>
        <mxCell id="Vffi9rLx0xFltfY1xyWI-64" value="[提交]" style="text;html=1;align=center;verticalAlign=middle;resizable=0;points=[];autosize=1;" vertex="1" parent="3">
          <mxGeometry x="-25" y="102" width="50" height="20" as="geometry" />
        </mxCell>
        <mxCell id="Vffi9rLx0xFltfY1xyWI-74" value="[发送短信]" style="text;html=1;align=center;verticalAlign=middle;resizable=0;points=[];autosize=1;" vertex="1" parent="3">
          <mxGeometry x="-40" y="210" width="70" height="20" as="geometry" />
        </mxCell>
        <mxCell id="Vffi9rLx0xFltfY1xyWI-85" value="" style="shape=line;html=1;strokeWidth=6;" vertex="1" parent="3">
          <mxGeometry x="110" y="410" width="140" height="7" as="geometry" />
        </mxCell>
        <mxCell id="Vffi9rLx0xFltfY1xyWI-90" value="[进行匹配]" style="text;html=1;align=center;verticalAlign=middle;resizable=0;points=[];autosize=1;" vertex="1" parent="3">
          <mxGeometry x="205.5" y="332" width="70" height="20" as="geometry" />
        </mxCell>
        <mxCell id="Vffi9rLx0xFltfY1xyWI-91" value="[系统接收]" style="text;html=1;align=center;verticalAlign=middle;resizable=0;points=[];autosize=1;" vertex="1" parent="3">
          <mxGeometry x="5.5" y="352" width="70" height="20" as="geometry" />
        </mxCell>
        <mxCell id="Vffi9rLx0xFltfY1xyWI-112" value="" style="ellipse;html=1;shape=endState;fillColor=#000000;shadow=1;" vertex="1" parent="3">
          <mxGeometry x="75.5" y="512" width="30" height="30" as="geometry" />
        </mxCell>
        <mxCell id="Vffi9rLx0xFltfY1xyWI-114" value="验证码是否&lt;br&gt;正确" style="text;html=1;align=center;verticalAlign=middle;resizable=0;points=[];autosize=1;" vertex="1" parent="3">
          <mxGeometry x="207.76" y="457" width="80" height="30" as="geometry" />
        </mxCell>
        <mxCell id="Vffi9rLx0xFltfY1xyWI-115" value="[不正确]" style="text;html=1;align=center;verticalAlign=middle;resizable=0;points=[];autosize=1;" vertex="1" parent="3">
          <mxGeometry x="80.5" y="452" width="60" height="20" as="geometry" />
        </mxCell>
        <mxCell id="Vffi9rLx0xFltfY1xyWI-116" value="[正确]" style="text;html=1;align=center;verticalAlign=middle;resizable=0;points=[];autosize=1;" vertex="1" parent="3">
          <mxGeometry x="185.5" y="517" width="50" height="20" as="geometry" />
        </mxCell>
        <mxCell id="Vffi9rLx0xFltfY1xyWI-83" value="[提交]" style="text;html=1;align=center;verticalAlign=middle;resizable=0;points=[];autosize=1;" vertex="1" parent="3">
          <mxGeometry x="125" y="832" width="50" height="20" as="geometry" />
        </mxCell>
        <mxCell id="Vffi9rLx0xFltfY1xyWI-130" value="[用户提示]" style="text;html=1;align=center;verticalAlign=middle;resizable=0;points=[];autosize=1;" vertex="1" parent="3">
          <mxGeometry x="70" y="972" width="70" height="20" as="geometry" />
        </mxCell>
        <mxCell id="4" value="管理员" style="swimlane;whiteSpace=wrap" parent="1" vertex="1">
          <mxGeometry x="740" y="128" width="260" height="1192" as="geometry" />
        </mxCell>
        <mxCell id="Vffi9rLx0xFltfY1xyWI-121" value="" style="shape=line;html=1;strokeWidth=6;" vertex="1" parent="4">
          <mxGeometry x="60" y="922" width="140" height="15" as="geometry" />
        </mxCell>
        <mxCell id="Vffi9rLx0xFltfY1xyWI-131" value="[系统操作]" style="text;html=1;align=center;verticalAlign=middle;resizable=0;points=[];autosize=1;" vertex="1" parent="4">
          <mxGeometry x="30" y="982" width="70" height="20" as="geometry" />
        </mxCell>
        <mxCell id="Vffi9rLx0xFltfY1xyWI-132" value="[通过]" style="text;html=1;align=center;verticalAlign=middle;resizable=0;points=[];autosize=1;" vertex="1" parent="4">
          <mxGeometry x="130" y="892" width="50" height="20" as="geometry" />
        </mxCell>
        <mxCell id="Vffi9rLx0xFltfY1xyWI-63" style="edgeStyle=none;rounded=0;orthogonalLoop=1;jettySize=auto;html=1;entryX=0;entryY=0.5;entryDx=0;entryDy=0;strokeColor=#000000;" edge="1" parent="1" source="7" target="15">
          <mxGeometry relative="1" as="geometry" />
        </mxCell>
        <mxCell id="Vffi9rLx0xFltfY1xyWI-66" style="edgeStyle=none;rounded=0;orthogonalLoop=1;jettySize=auto;html=1;exitX=0.25;exitY=0.5;exitDx=0;exitDy=0;exitPerimeter=0;strokeColor=#000000;entryX=1;entryY=0.5;entryDx=0;entryDy=0;" edge="1" parent="1" source="Vffi9rLx0xFltfY1xyWI-43" target="Vffi9rLx0xFltfY1xyWI-67">
          <mxGeometry relative="1" as="geometry">
            <mxPoint x="367.25" y="404.9999999999999" as="targetPoint" />
          </mxGeometry>
        </mxCell>
        <mxCell id="Vffi9rLx0xFltfY1xyWI-77" style="edgeStyle=none;rounded=0;orthogonalLoop=1;jettySize=auto;html=1;exitX=0.5;exitY=1;exitDx=0;exitDy=0;strokeColor=#000000;entryX=0.5;entryY=0;entryDx=0;entryDy=0;" edge="1" parent="1" source="Vffi9rLx0xFltfY1xyWI-67" target="Vffi9rLx0xFltfY1xyWI-73">
          <mxGeometry relative="1" as="geometry">
            <mxPoint x="311.7058823529412" y="449.9999999999998" as="targetPoint" />
          </mxGeometry>
        </mxCell>
        <mxCell id="Vffi9rLx0xFltfY1xyWI-67" value="进行注册" style="shadow=1;" vertex="1" parent="1">
          <mxGeometry x="243.62" y="363" width="122.75" height="50" as="geometry" />
        </mxCell>
        <mxCell id="Vffi9rLx0xFltfY1xyWI-68" value="填写用户注册信息表" style="shadow=1;" vertex="1" parent="1">
          <mxGeometry y="260" width="122.75" height="50" as="geometry" />
        </mxCell>
        <mxCell id="Vffi9rLx0xFltfY1xyWI-88" style="edgeStyle=none;rounded=0;orthogonalLoop=1;jettySize=auto;html=1;strokeColor=#000000;entryX=0.707;entryY=0.533;entryDx=0;entryDy=0;entryPerimeter=0;" edge="1" parent="1" source="Vffi9rLx0xFltfY1xyWI-69" target="Vffi9rLx0xFltfY1xyWI-85">
          <mxGeometry relative="1" as="geometry">
            <mxPoint x="651.375" y="510" as="targetPoint" />
          </mxGeometry>
        </mxCell>
        <mxCell id="Vffi9rLx0xFltfY1xyWI-69" value="记录内容" style="shadow=1;" vertex="1" parent="1">
          <mxGeometry x="590" y="363" width="122.75" height="50" as="geometry" />
        </mxCell>
        <mxCell id="Vffi9rLx0xFltfY1xyWI-102" style="edgeStyle=none;rounded=0;orthogonalLoop=1;jettySize=auto;html=1;entryX=0.5;entryY=0;entryDx=0;entryDy=0;strokeColor=#000000;" edge="1" parent="1" source="Vffi9rLx0xFltfY1xyWI-70" target="Vffi9rLx0xFltfY1xyWI-99">
          <mxGeometry relative="1" as="geometry" />
        </mxCell>
        <mxCell id="Vffi9rLx0xFltfY1xyWI-100" style="edgeStyle=none;rounded=0;orthogonalLoop=1;jettySize=auto;html=1;strokeColor=#000000;entryX=0.496;entryY=-0.028;entryDx=0;entryDy=0;entryPerimeter=0;" edge="1" parent="1" source="Vffi9rLx0xFltfY1xyWI-71" target="Vffi9rLx0xFltfY1xyWI-108">
          <mxGeometry relative="1" as="geometry">
            <mxPoint x="312" y="810" as="targetPoint" />
          </mxGeometry>
        </mxCell>
        <mxCell id="Vffi9rLx0xFltfY1xyWI-71" value="登录" style="shadow=1;" vertex="1" parent="1">
          <mxGeometry x="243.62" y="690" width="122.75" height="50" as="geometry" />
        </mxCell>
        <mxCell id="Vffi9rLx0xFltfY1xyWI-94" style="edgeStyle=none;rounded=0;orthogonalLoop=1;jettySize=auto;html=1;strokeColor=#000000;" edge="1" parent="1" source="Vffi9rLx0xFltfY1xyWI-72" target="Vffi9rLx0xFltfY1xyWI-71">
          <mxGeometry relative="1" as="geometry" />
        </mxCell>
        <mxCell id="Vffi9rLx0xFltfY1xyWI-72" value="记录信息" style="shadow=1;" vertex="1" parent="1">
          <mxGeometry x="558.62" y="690" width="122.75" height="50" as="geometry" />
        </mxCell>
        <mxCell id="Vffi9rLx0xFltfY1xyWI-89" style="edgeStyle=none;rounded=0;orthogonalLoop=1;jettySize=auto;html=1;strokeColor=#000000;" edge="1" parent="1" source="Vffi9rLx0xFltfY1xyWI-73">
          <mxGeometry relative="1" as="geometry">
            <mxPoint x="580" y="530" as="targetPoint" />
          </mxGeometry>
        </mxCell>
        <mxCell id="Vffi9rLx0xFltfY1xyWI-73" value="提交短信" style="shadow=1;" vertex="1" parent="1">
          <mxGeometry x="243.63" y="450" width="122.75" height="50" as="geometry" />
        </mxCell>
        <mxCell id="Vffi9rLx0xFltfY1xyWI-76" style="edgeStyle=none;rounded=0;orthogonalLoop=1;jettySize=auto;html=1;exitX=0.75;exitY=0.5;exitDx=0;exitDy=0;exitPerimeter=0;strokeColor=#000000;entryX=0.204;entryY=0.02;entryDx=0;entryDy=0;entryPerimeter=0;" edge="1" parent="1" source="Vffi9rLx0xFltfY1xyWI-43" target="Vffi9rLx0xFltfY1xyWI-69">
          <mxGeometry relative="1" as="geometry">
            <mxPoint x="621" y="363" as="targetPoint" />
          </mxGeometry>
        </mxCell>
        <mxCell id="Vffi9rLx0xFltfY1xyWI-79" value="[提交]" style="text;html=1;align=center;verticalAlign=middle;resizable=0;points=[];autosize=1;" vertex="1" parent="1">
          <mxGeometry x="10" y="520" width="50" height="20" as="geometry" />
        </mxCell>
        <mxCell id="Vffi9rLx0xFltfY1xyWI-80" value="[提交]" style="text;html=1;align=center;verticalAlign=middle;resizable=0;points=[];autosize=1;" vertex="1" parent="1">
          <mxGeometry x="46.379999999999995" y="393" width="50" height="20" as="geometry" />
        </mxCell>
        <mxCell id="Vffi9rLx0xFltfY1xyWI-81" value="[提交]" style="text;html=1;align=center;verticalAlign=middle;resizable=0;points=[];autosize=1;" vertex="1" parent="1">
          <mxGeometry x="56.379999999999995" y="403" width="50" height="20" as="geometry" />
        </mxCell>
        <mxCell id="Vffi9rLx0xFltfY1xyWI-82" value="[提交]" style="text;html=1;align=center;verticalAlign=middle;resizable=0;points=[];autosize=1;" vertex="1" parent="1">
          <mxGeometry x="66.38" y="413" width="50" height="20" as="geometry" />
        </mxCell>
        <mxCell id="Vffi9rLx0xFltfY1xyWI-92" style="edgeStyle=none;rounded=0;orthogonalLoop=1;jettySize=auto;html=1;strokeColor=#000000;exitX=0.502;exitY=0.7;exitDx=0;exitDy=0;exitPerimeter=0;" edge="1" parent="1" source="Vffi9rLx0xFltfY1xyWI-85">
          <mxGeometry relative="1" as="geometry">
            <mxPoint x="620" y="580" as="targetPoint" />
          </mxGeometry>
        </mxCell>
        <mxCell id="Vffi9rLx0xFltfY1xyWI-96" value="填写用户注册信息表" style="shadow=1;" vertex="1" parent="1">
          <mxGeometry x="10" y="270" width="122.75" height="50" as="geometry" />
        </mxCell>
        <mxCell id="Vffi9rLx0xFltfY1xyWI-97" value="填写用户注册信息表" style="shadow=1;" vertex="1" parent="1">
          <mxGeometry x="20" y="280" width="122.75" height="50" as="geometry" />
        </mxCell>
        <mxCell id="Vffi9rLx0xFltfY1xyWI-122" style="edgeStyle=orthogonalEdgeStyle;rounded=0;orthogonalLoop=1;jettySize=auto;html=1;entryX=0.504;entryY=0.576;entryDx=0;entryDy=0;entryPerimeter=0;strokeColor=#000000;" edge="1" parent="1" source="Vffi9rLx0xFltfY1xyWI-98" target="Vffi9rLx0xFltfY1xyWI-121">
          <mxGeometry relative="1" as="geometry" />
        </mxCell>
        <mxCell id="Vffi9rLx0xFltfY1xyWI-98" value="审核" style="shadow=1;" vertex="1" parent="1">
          <mxGeometry x="808.63" y="960" width="122.75" height="50" as="geometry" />
        </mxCell>
        <mxCell id="Vffi9rLx0xFltfY1xyWI-120" style="edgeStyle=orthogonalEdgeStyle;rounded=0;orthogonalLoop=1;jettySize=auto;html=1;entryX=0;entryY=0.5;entryDx=0;entryDy=0;strokeColor=#000000;" edge="1" parent="1" source="Vffi9rLx0xFltfY1xyWI-99" target="Vffi9rLx0xFltfY1xyWI-98">
          <mxGeometry relative="1" as="geometry" />
        </mxCell>
        <mxCell id="Vffi9rLx0xFltfY1xyWI-99" value="举报" style="shadow=1;" vertex="1" parent="1">
          <mxGeometry x="243.63" y="960" width="122.75" height="50" as="geometry" />
        </mxCell>
        <mxCell id="Vffi9rLx0xFltfY1xyWI-111" style="edgeStyle=orthogonalEdgeStyle;rounded=0;orthogonalLoop=1;jettySize=auto;html=1;strokeColor=#000000;" edge="1" parent="1" source="Vffi9rLx0xFltfY1xyWI-109">
          <mxGeometry relative="1" as="geometry">
            <mxPoint x="530" y="640" as="targetPoint" />
          </mxGeometry>
        </mxCell>
        <mxCell id="Vffi9rLx0xFltfY1xyWI-113" style="edgeStyle=orthogonalEdgeStyle;rounded=0;orthogonalLoop=1;jettySize=auto;html=1;strokeColor=#000000;" edge="1" parent="1" source="Vffi9rLx0xFltfY1xyWI-109">
          <mxGeometry relative="1" as="geometry">
            <mxPoint x="620" y="690" as="targetPoint" />
          </mxGeometry>
        </mxCell>
        <mxCell id="Vffi9rLx0xFltfY1xyWI-109" value="" style="html=1;whiteSpace=wrap;aspect=fixed;shape=isoRectangle;shadow=1;strokeColor=#000000;" vertex="1" parent="1">
          <mxGeometry x="584.99" y="578" width="70" height="42" as="geometry" />
        </mxCell>
        <mxCell id="Vffi9rLx0xFltfY1xyWI-118" value="" style="ellipse;html=1;shape=endState;fillColor=#000000;shadow=1;" vertex="1" parent="1">
          <mxGeometry x="400" y="840" width="30" height="30" as="geometry" />
        </mxCell>
        <mxCell id="Vffi9rLx0xFltfY1xyWI-133" style="edgeStyle=orthogonalEdgeStyle;rounded=0;orthogonalLoop=1;jettySize=auto;html=1;exitX=0;exitY=0.5;exitDx=0;exitDy=0;strokeColor=#000000;" edge="1" parent="1" source="Vffi9rLx0xFltfY1xyWI-124">
          <mxGeometry relative="1" as="geometry">
            <mxPoint x="270" y="800" as="targetPoint" />
            <Array as="points">
              <mxPoint x="200" y="1165" />
            </Array>
          </mxGeometry>
        </mxCell>
        <mxCell id="Vffi9rLx0xFltfY1xyWI-124" value="提示举报成功" style="shadow=1;" vertex="1" parent="1">
          <mxGeometry x="243.63" y="1140" width="122.75" height="50" as="geometry" />
        </mxCell>
        <mxCell id="Vffi9rLx0xFltfY1xyWI-125" value="删除相应内容" style="shadow=1;" vertex="1" parent="1">
          <mxGeometry x="528.62" y="1140" width="122.75" height="50" as="geometry" />
        </mxCell>
        <mxCell id="Vffi9rLx0xFltfY1xyWI-128" style="edgeStyle=none;rounded=0;orthogonalLoop=1;jettySize=auto;html=1;entryX=1;entryY=0.5;entryDx=0;entryDy=0;strokeColor=#000000;exitX=0.25;exitY=0.5;exitDx=0;exitDy=0;exitPerimeter=0;" edge="1" parent="1" source="Vffi9rLx0xFltfY1xyWI-121" target="Vffi9rLx0xFltfY1xyWI-124">
          <mxGeometry relative="1" as="geometry" />
        </mxCell>
        <mxCell id="Vffi9rLx0xFltfY1xyWI-129" style="edgeStyle=none;rounded=0;orthogonalLoop=1;jettySize=auto;html=1;exitX=0.75;exitY=0.5;exitDx=0;exitDy=0;exitPerimeter=0;entryX=1;entryY=0.5;entryDx=0;entryDy=0;strokeColor=#000000;" edge="1" parent="1" source="Vffi9rLx0xFltfY1xyWI-121" target="Vffi9rLx0xFltfY1xyWI-125">
          <mxGeometry relative="1" as="geometry" />
        </mxCell>
        <mxCell id="Vffi9rLx0xFltfY1xyWI-134" value="组织" style="swimlane;whiteSpace=wrap" vertex="1" parent="1">
          <mxGeometry x="1510" y="119" width="268" height="921" as="geometry" />
        </mxCell>
        <mxCell id="Vffi9rLx0xFltfY1xyWI-135" value="" style="ellipse;shape=startState;fillColor=#000000;" vertex="1" parent="Vffi9rLx0xFltfY1xyWI-134">
          <mxGeometry x="120" y="32" width="30" height="30" as="geometry" />
        </mxCell>
        <mxCell id="Vffi9rLx0xFltfY1xyWI-136" value="" style="edgeStyle=elbowEdgeStyle;elbow=horizontal;verticalAlign=bottom;endArrow=open;endSize=8;endFill=1;rounded=0" edge="1" parent="Vffi9rLx0xFltfY1xyWI-134" source="Vffi9rLx0xFltfY1xyWI-135" target="Vffi9rLx0xFltfY1xyWI-137">
          <mxGeometry x="100" y="40" as="geometry">
            <mxPoint x="115" y="110" as="targetPoint" />
          </mxGeometry>
        </mxCell>
        <mxCell id="Vffi9rLx0xFltfY1xyWI-137" value="填写组织认证表" style="shadow=1;" vertex="1" parent="Vffi9rLx0xFltfY1xyWI-134">
          <mxGeometry x="73.63000000000001" y="92" width="122.75" height="50" as="geometry" />
        </mxCell>
        <mxCell id="Vffi9rLx0xFltfY1xyWI-139" value="[发布消息]" style="text;html=1;align=center;verticalAlign=middle;resizable=0;points=[];autosize=1;" vertex="1" parent="Vffi9rLx0xFltfY1xyWI-134">
          <mxGeometry x="132" y="511" width="70" height="20" as="geometry" />
        </mxCell>
        <mxCell id="Vffi9rLx0xFltfY1xyWI-142" value="" style="html=1;whiteSpace=wrap;aspect=fixed;shape=isoRectangle;shadow=1;strokeColor=#000000;" vertex="1" parent="Vffi9rLx0xFltfY1xyWI-134">
          <mxGeometry x="100.02000000000001" y="435" width="70" height="42" as="geometry" />
        </mxCell>
        <mxCell id="Vffi9rLx0xFltfY1xyWI-145" value="系统" style="swimlane;whiteSpace=wrap;shadow=1;" vertex="1" parent="1">
          <mxGeometry x="1778" y="119" width="292" height="921" as="geometry" />
        </mxCell>
        <mxCell id="Vffi9rLx0xFltfY1xyWI-149" value="[提交]" style="text;html=1;align=center;verticalAlign=middle;resizable=0;points=[];autosize=1;" vertex="1" parent="Vffi9rLx0xFltfY1xyWI-145">
          <mxGeometry x="105.5" y="91" width="50" height="20" as="geometry" />
        </mxCell>
        <mxCell id="Vffi9rLx0xFltfY1xyWI-150" value="[允许注册]" style="text;html=1;align=center;verticalAlign=middle;resizable=0;points=[];autosize=1;" vertex="1" parent="Vffi9rLx0xFltfY1xyWI-145">
          <mxGeometry x="175" y="191" width="70" height="20" as="geometry" />
        </mxCell>
        <mxCell id="Vffi9rLx0xFltfY1xyWI-158" value="[提交]" style="text;html=1;align=center;verticalAlign=middle;resizable=0;points=[];autosize=1;" vertex="1" parent="Vffi9rLx0xFltfY1xyWI-145">
          <mxGeometry x="125" y="561" width="50" height="20" as="geometry" />
        </mxCell>
        <mxCell id="Vffi9rLx0xFltfY1xyWI-159" value="[成功]" style="text;html=1;align=center;verticalAlign=middle;resizable=0;points=[];autosize=1;" vertex="1" parent="Vffi9rLx0xFltfY1xyWI-145">
          <mxGeometry x="152" y="761" width="50" height="20" as="geometry" />
        </mxCell>
        <mxCell id="Vffi9rLx0xFltfY1xyWI-162" value="[推送]" style="text;html=1;align=center;verticalAlign=middle;resizable=0;points=[];autosize=1;" vertex="1" parent="Vffi9rLx0xFltfY1xyWI-145">
          <mxGeometry x="-18" y="801" width="50" height="20" as="geometry" />
        </mxCell>
        <mxCell id="Vffi9rLx0xFltfY1xyWI-160" value="管理员" style="swimlane;whiteSpace=wrap" vertex="1" parent="1">
          <mxGeometry x="2070" y="119" width="268" height="921" as="geometry" />
        </mxCell>
        <mxCell id="Vffi9rLx0xFltfY1xyWI-163" value="[通过]" style="text;html=1;align=center;verticalAlign=middle;resizable=0;points=[];autosize=1;" vertex="1" parent="Vffi9rLx0xFltfY1xyWI-160">
          <mxGeometry x="2" y="661" width="50" height="20" as="geometry" />
        </mxCell>
        <mxCell id="Vffi9rLx0xFltfY1xyWI-147" value="进行审核" style="" vertex="1" parent="Vffi9rLx0xFltfY1xyWI-160">
          <mxGeometry x="75" y="92" width="110" height="50" as="geometry" />
        </mxCell>
        <mxCell id="Vffi9rLx0xFltfY1xyWI-148" value="" style="shape=line;html=1;strokeWidth=6;" vertex="1" parent="Vffi9rLx0xFltfY1xyWI-160">
          <mxGeometry x="52" y="181" width="148" height="15" as="geometry" />
        </mxCell>
        <mxCell id="Vffi9rLx0xFltfY1xyWI-146" style="edgeStyle=none;rounded=0;orthogonalLoop=1;jettySize=auto;html=1;entryX=0.526;entryY=0.573;entryDx=0;entryDy=0;entryPerimeter=0;strokeColor=#000000;" edge="1" parent="Vffi9rLx0xFltfY1xyWI-160" source="Vffi9rLx0xFltfY1xyWI-147" target="Vffi9rLx0xFltfY1xyWI-148">
          <mxGeometry relative="1" as="geometry" />
        </mxCell>
        <mxCell id="Vffi9rLx0xFltfY1xyWI-193" value="[通过]" style="text;html=1;align=center;verticalAlign=middle;resizable=0;points=[];autosize=1;" vertex="1" parent="Vffi9rLx0xFltfY1xyWI-160">
          <mxGeometry x="130" y="151" width="50" height="20" as="geometry" />
        </mxCell>
        <mxCell id="Vffi9rLx0xFltfY1xyWI-194" value="[进行记录]" style="text;html=1;align=center;verticalAlign=middle;resizable=0;points=[];autosize=1;" vertex="1" parent="Vffi9rLx0xFltfY1xyWI-160">
          <mxGeometry x="2" y="231" width="70" height="20" as="geometry" />
        </mxCell>
        <mxCell id="Vffi9rLx0xFltfY1xyWI-164" style="edgeStyle=none;rounded=0;orthogonalLoop=1;jettySize=auto;html=1;entryX=0;entryY=0.5;entryDx=0;entryDy=0;strokeColor=#000000;" edge="1" parent="1" source="Vffi9rLx0xFltfY1xyWI-137" target="Vffi9rLx0xFltfY1xyWI-147">
          <mxGeometry relative="1" as="geometry" />
        </mxCell>
        <mxCell id="Vffi9rLx0xFltfY1xyWI-165" style="edgeStyle=none;rounded=0;orthogonalLoop=1;jettySize=auto;html=1;exitX=0.25;exitY=0.5;exitDx=0;exitDy=0;exitPerimeter=0;strokeColor=#000000;entryX=1;entryY=0.5;entryDx=0;entryDy=0;" edge="1" parent="1" source="Vffi9rLx0xFltfY1xyWI-148" target="Vffi9rLx0xFltfY1xyWI-167">
          <mxGeometry relative="1" as="geometry">
            <mxPoint x="1705.25" y="395.9999999999999" as="targetPoint" />
          </mxGeometry>
        </mxCell>
        <mxCell id="Vffi9rLx0xFltfY1xyWI-166" style="edgeStyle=none;rounded=0;orthogonalLoop=1;jettySize=auto;html=1;exitX=0.5;exitY=1;exitDx=0;exitDy=0;strokeColor=#000000;entryX=0.5;entryY=0;entryDx=0;entryDy=0;" edge="1" parent="1" source="Vffi9rLx0xFltfY1xyWI-167" target="Vffi9rLx0xFltfY1xyWI-172">
          <mxGeometry relative="1" as="geometry">
            <mxPoint x="1643.005" y="441" as="targetPoint" />
          </mxGeometry>
        </mxCell>
        <mxCell id="Vffi9rLx0xFltfY1xyWI-167" value="进行注册，&#xa;可发布消息" style="shadow=1;" vertex="1" parent="1">
          <mxGeometry x="1581.6399999999999" y="363" width="122.75" height="50" as="geometry" />
        </mxCell>
        <mxCell id="Vffi9rLx0xFltfY1xyWI-169" value="信息记入数据库" style="shadow=1;" vertex="1" parent="1">
          <mxGeometry x="1866.63" y="363" width="122.75" height="50" as="geometry" />
        </mxCell>
        <mxCell id="Vffi9rLx0xFltfY1xyWI-171" style="edgeStyle=none;rounded=0;orthogonalLoop=1;jettySize=auto;html=1;strokeColor=#000000;entryX=0.496;entryY=-0.028;entryDx=0;entryDy=0;entryPerimeter=0;" edge="1" parent="1" source="Vffi9rLx0xFltfY1xyWI-172" target="Vffi9rLx0xFltfY1xyWI-142">
          <mxGeometry relative="1" as="geometry">
            <mxPoint x="1650.01" y="585" as="targetPoint" />
          </mxGeometry>
        </mxCell>
        <mxCell id="Vffi9rLx0xFltfY1xyWI-172" value="登录" style="shadow=1;" vertex="1" parent="1">
          <mxGeometry x="1581.6299999999999" y="465" width="122.75" height="50" as="geometry" />
        </mxCell>
        <mxCell id="Vffi9rLx0xFltfY1xyWI-177" style="edgeStyle=none;rounded=0;orthogonalLoop=1;jettySize=auto;html=1;exitX=0.75;exitY=0.5;exitDx=0;exitDy=0;exitPerimeter=0;strokeColor=#000000;entryX=1;entryY=0.5;entryDx=0;entryDy=0;" edge="1" parent="1" source="Vffi9rLx0xFltfY1xyWI-148" target="Vffi9rLx0xFltfY1xyWI-169">
          <mxGeometry relative="1" as="geometry">
            <mxPoint x="1959" y="354" as="targetPoint" />
          </mxGeometry>
        </mxCell>
        <mxCell id="Vffi9rLx0xFltfY1xyWI-179" style="rounded=0;orthogonalLoop=1;jettySize=auto;html=1;entryX=1;entryY=0.5;entryDx=0;entryDy=0;strokeColor=#000000;" edge="1" parent="1" source="Vffi9rLx0xFltfY1xyWI-180" target="Vffi9rLx0xFltfY1xyWI-189">
          <mxGeometry relative="1" as="geometry">
            <mxPoint x="2208.56" y="798.6399999999999" as="targetPoint" />
          </mxGeometry>
        </mxCell>
        <mxCell id="Vffi9rLx0xFltfY1xyWI-180" value="审核" style="shadow=1;" vertex="1" parent="1">
          <mxGeometry x="2146.63" y="680" width="122.75" height="50" as="geometry" />
        </mxCell>
        <mxCell id="Vffi9rLx0xFltfY1xyWI-181" style="edgeStyle=orthogonalEdgeStyle;rounded=0;orthogonalLoop=1;jettySize=auto;html=1;entryX=0;entryY=0.5;entryDx=0;entryDy=0;strokeColor=#000000;" edge="1" parent="1" source="Vffi9rLx0xFltfY1xyWI-182" target="Vffi9rLx0xFltfY1xyWI-180">
          <mxGeometry relative="1" as="geometry" />
        </mxCell>
        <mxCell id="Vffi9rLx0xFltfY1xyWI-182" value="发布消息内容" style="shadow=1;" vertex="1" parent="1">
          <mxGeometry x="1583.65" y="680" width="122.75" height="50" as="geometry" />
        </mxCell>
        <mxCell id="Vffi9rLx0xFltfY1xyWI-186" value="" style="ellipse;html=1;shape=endState;fillColor=#000000;shadow=1;" vertex="1" parent="1">
          <mxGeometry x="1739" y="630" width="30" height="30" as="geometry" />
        </mxCell>
        <mxCell id="Vffi9rLx0xFltfY1xyWI-187" style="edgeStyle=orthogonalEdgeStyle;rounded=0;orthogonalLoop=1;jettySize=auto;html=1;exitX=0;exitY=0.5;exitDx=0;exitDy=0;strokeColor=#000000;entryX=0.002;entryY=0.531;entryDx=0;entryDy=0;entryPerimeter=0;" edge="1" parent="1" source="Vffi9rLx0xFltfY1xyWI-188" target="Vffi9rLx0xFltfY1xyWI-142">
          <mxGeometry relative="1" as="geometry">
            <mxPoint x="1600" y="584" as="targetPoint" />
            <Array as="points">
              <mxPoint x="1536" y="940" />
              <mxPoint x="1536" y="576" />
            </Array>
          </mxGeometry>
        </mxCell>
        <mxCell id="Vffi9rLx0xFltfY1xyWI-188" value="接收留言与报名消息" style="shadow=1;" vertex="1" parent="1">
          <mxGeometry x="1581.64" y="915" width="122.75" height="50" as="geometry" />
        </mxCell>
        <mxCell id="Vffi9rLx0xFltfY1xyWI-196" style="edgeStyle=none;rounded=0;orthogonalLoop=1;jettySize=auto;html=1;entryX=0.5;entryY=0;entryDx=0;entryDy=0;strokeColor=#000000;" edge="1" parent="1" source="Vffi9rLx0xFltfY1xyWI-189" target="Vffi9rLx0xFltfY1xyWI-195">
          <mxGeometry relative="1" as="geometry" />
        </mxCell>
        <mxCell id="Vffi9rLx0xFltfY1xyWI-189" value="发布消息并推送" style="shadow=1;" vertex="1" parent="1">
          <mxGeometry x="1866.6299999999999" y="810" width="122.75" height="50" as="geometry" />
        </mxCell>
        <mxCell id="Vffi9rLx0xFltfY1xyWI-144" style="edgeStyle=orthogonalEdgeStyle;rounded=0;orthogonalLoop=1;jettySize=auto;html=1;strokeColor=#000000;exitX=1.016;exitY=0.496;exitDx=0;exitDy=0;exitPerimeter=0;entryX=0.5;entryY=0;entryDx=0;entryDy=0;" edge="1" parent="1" source="Vffi9rLx0xFltfY1xyWI-142" target="Vffi9rLx0xFltfY1xyWI-186">
          <mxGeometry relative="1" as="geometry">
            <mxPoint x="1755.51" y="616" as="targetPoint" />
            <mxPoint x="1810.5" y="575" as="sourcePoint" />
            <Array as="points">
              <mxPoint x="1755" y="575" />
              <mxPoint x="1755" y="630" />
            </Array>
          </mxGeometry>
        </mxCell>
        <mxCell id="Vffi9rLx0xFltfY1xyWI-141" style="edgeStyle=orthogonalEdgeStyle;rounded=0;orthogonalLoop=1;jettySize=auto;html=1;entryX=0.5;entryY=0;entryDx=0;entryDy=0;strokeColor=#000000;" edge="1" parent="1" source="Vffi9rLx0xFltfY1xyWI-142" target="Vffi9rLx0xFltfY1xyWI-182">
          <mxGeometry relative="1" as="geometry">
            <mxPoint x="1643.0150000000003" y="634.9999999999998" as="targetPoint" />
          </mxGeometry>
        </mxCell>
        <mxCell id="Vffi9rLx0xFltfY1xyWI-197" style="edgeStyle=none;rounded=0;orthogonalLoop=1;jettySize=auto;html=1;entryX=1;entryY=0.5;entryDx=0;entryDy=0;strokeColor=#000000;" edge="1" parent="1" source="Vffi9rLx0xFltfY1xyWI-195" target="Vffi9rLx0xFltfY1xyWI-188">
          <mxGeometry relative="1" as="geometry" />
        </mxCell>
        <mxCell id="Vffi9rLx0xFltfY1xyWI-195" value="获取用户消息与留言" style="shadow=1;" vertex="1" parent="1">
          <mxGeometry x="1866.63" y="915" width="122.75" height="50" as="geometry" />
        </mxCell>
      </root>
    </mxGraphModel>
  </diagram>
</mxfile>
